<?xml version="1.0" encoding="UTF-8"?>
<svg width="1200pt" height="1200pt" version="1.1" viewBox="0 0 1200 1200" xmlns="http://www.w3.org/2000/svg">
 <g fill="#003055">
  <path d="m660 906h-120.01c-13.254 0-24 10.746-24 24v120c0 13.254 10.746 24 24 24h120.01c13.254 0 24-10.746 24-24v-120c0-13.254-10.746-24-24-24zm-24 120h-72.008v-72h72.008z"/>
  <path d="m513.26 321.93-98.609-76.359c-5.7031-4.4062-13.082-6-20.098-4.4062-7.0273 1.6211-12.941 6.3164-16.133 12.785-21.445 43.551-32.32 96.148-32.32 156.32 0 13.254 10.746 24 24 24h120.49c13.254 0 24-10.746 24-24 0-24.234 2.4023-45.473 7.1484-63.133 2.5117-9.3438-0.83594-19.281-8.4805-25.203zm-45.938 64.332h-72.559c1.7344-30.703 6.8672-58.633 15.332-83.508l61.652 47.742c-2.1602 11.176-3.6289 23.047-4.4258 35.766z"/>
  <path d="m791.73 476.37-178.05 42.668c-4.7422 1.1328-9.0156 3.6797-12.27 7.3086-15.992 17.812-29.52 37.246-41.348 59.426-3.3242 6.2227-3.7344 13.594-1.1328 20.152 2.6016 6.5508 7.957 11.637 14.637 13.887l115.59 38.977c2.5195 0.84375 5.1094 1.2539 7.6641 1.2539 8.1562 0 15.984-4.1719 20.438-11.426 6.0938-9.8906 12.855-18.832 20.684-27.328 37.078-40.219 62.73-75.383 80.754-110.66 4.2539-8.3438 3.2812-18.402-2.5195-25.762-5.7891-7.3672-15.363-10.672-24.445-8.4961zm-89.086 112.38c-5.4727 5.9375-10.641 12.191-15.457 18.707l-70.008-23.602c4.7461-6.9609 9.7734-13.582 15.141-19.934l113.74-27.258c-12.07 16.469-26.402 33.629-43.418 52.086z"/>
  <path d="m673.96 697.04-115.32-38.895c-6.4336-2.1445-13.508-1.5-19.438 1.8281-5.9297 3.3398-10.168 9.0352-11.652 15.668-10.477 46.723-12.582 81.457-12.582 122.36 0 13.254 10.746 24 24 24h120.23c13.254 0 24-10.746 24-24 0-32.051 2.1562-49.348 6.6914-73.84 2.168-11.742-4.6172-23.297-15.938-27.117zm-38.285 76.957h-72.367c0.62109-20.262 2.2578-39.82 5.918-61.617l70.004 23.602c-1.7617 12.023-2.957 23.859-3.5547 38.016z"/>
  <path d="m441.05 215.07 98.496 76.273c4.2773 3.3047 9.4609 5.0234 14.703 5.0234 3.0273 0 6.082-0.57422 8.9844-1.7461 10.23-4.1328 22.605-6.2266 36.773-6.2266 11.922 0 23.121 1.2383 33.281 3.6719 8.6953 2.0742 17.789-0.82031 23.66-7.5273l81.27-92.844c4.9102-5.6133 6.9375-13.188 5.4727-20.504-1.4531-7.3125-6.2344-13.535-12.914-16.832-38.172-18.816-82.164-28.355-130.77-28.355-61.922 0-116.97 17.742-159.19 51.305-5.7656 4.582-9.1133 11.566-9.0625 18.938 0.042968 7.3711 3.4766 14.309 9.3008 18.824zm158.95-41.066c28.852 0 55.57 3.8633 79.816 11.52l-49.922 57.035c-23.32-3.5078-49.758-2.8242-71.082 3l-61.812-47.871c29.348-15.566 64.383-23.684 103-23.684z"/>
  <path d="m809.5 219.06c-4.3359-5.8008-11.062-9.3281-18.293-9.6094-7.4766-0.21094-14.215 2.7227-18.984 8.1719l-84.469 96.504c-5.2734 6.0156-7.1953 14.266-5.1328 21.996 2.0508 7.6758 3.0469 15.637 3.0469 24.332 0 23.348-3.8555 43.562-12.141 63.633-3.4453 8.3359-1.9219 17.895 3.9375 24.75 4.6172 5.4062 11.32 8.4062 18.246 8.4062 1.8633 0 3.7383-0.21875 5.5898-0.66406l131.66-31.547c9.7383-2.332 17.016-10.473 18.234-20.414 1.8164-14.852 2.707-29.301 2.707-44.168 0-53.645-15.352-102.54-44.402-141.39zm-4.3594 163.29-74.848 17.938c2.2734-12.703 3.375-25.848 3.375-39.828 0-8.1016-0.63281-16.047-1.8867-23.742l55.172-63.043c12.586 25.43 18.949 54.496 18.949 86.781 0 7.375-0.24609 14.629-0.76172 21.895z"/>
 </g>
</svg>
