<?xml version="1.0" encoding="UTF-8"?>
<svg width="1200pt" height="1200pt" version="1.1" viewBox="0 0 1200 1200" xmlns="http://www.w3.org/2000/svg">
 <g fill="#003055">
  <path d="m1008.6 274.44h-817.2c-33.121 0.12109-59.879 26.883-60 60v531.24c0.12109 33.117 26.883 59.879 60 60h817.2c33.117-0.11719 59.879-26.879 60-60v-531.24c-0.11719-33.238-26.879-60-60-60zm8.3984 599.64c-2.2812 2.2812-5.1602 3.4844-8.5156 3.6016h-817.2c-3.2383 0-6.1211-1.3164-8.5234-3.6016-2.2773-2.2812-3.4766-5.1602-3.4766-8.3984v-531.24c0-3.2383 1.3203-6.1172 3.4766-8.3984 2.2773-2.2812 5.1602-3.4844 8.5234-3.6016h817.2c3.2383 0 6.1172 1.3164 8.5156 3.6016 2.2812 2.2812 3.4844 5.1602 3.4844 8.3984v531.24c0.11719 3.2383-1.1992 6.1172-3.4844 8.3984z"/>
  <path d="m519.96 410.88c-10.562-9.6016-24.477-15.602-39.961-15.602h-39.961v39.961h39.961c10.801 0 20.039 9.1172 20.039 20.039v279.96c0 10.801-9.1172 20.039-20.039 20.039h-39.961v39.961h39.961c15.477 0 29.398-6 39.961-15.602 10.68 9.6016 24.602 15.602 39.961 15.602h40.078v-39.961h-39.961c-10.801 0-20.039-9.1211-20.039-20.039v-279.96c0-10.801 9.1172-20.039 20.039-20.039h39.961v-39.961h-39.961c-15.477 0-29.398 6-40.078 15.602z"/>
  <path d="m336.96 416.16h-44.398v72.961h-35.398v35.879h35.398v173.16c0 16.801 3.6016 30.359 11.039 40.922 7.3164 10.562 21.238 15.719 41.762 15.719 6.3594 0 12.238-0.35938 17.762-0.96094 5.3984-0.60156 10.68-1.6797 15.719-3.1211v-34.922c-3.2383 0.47656-6.1172 0.72266-8.5156 0.83984-2.3984 0.11719-4.6836 0.11719-6.8398 0.11719-7.918 0-13.68-0.96094-17.039-2.6406-6.2383-3.1211-9.2383-9.2383-9.2383-18.359v-170.76h41.762v-35.879h-41.762v-72.961z"/>
 </g>
</svg>
