<?xml version="1.0" encoding="UTF-8"?>
<svg width="1200pt" height="1200pt" version="1.1" viewBox="0 0 1200 1200" xmlns="http://www.w3.org/2000/svg">
 <g fill="#003055">
  <path d="m996 712.8h-343.2v-42c0-2.3984-1.1992-6-2.3984-8.3984l-51.602-61.199c-4.8008-4.8008-10.801-7.1992-18-7.1992-6 0-13.199 2.3984-18 7.1992l-51.602 61.199c-2.3984 2.3984-2.3984 4.8008-2.3984 8.3984v42h-343.2c-6 0-12 6-12 12 0 7.1992 6 12 12 12h343.2v48c0 6 4.8008 12 12 12h120c7.1992 0 12-4.8008 12-12v-48h343.2c6 0 12-4.8008 12-12s-6-12-12-12zm-367.2 0v60h-96v-97.199l48-56.398 48 56.398z"/>
  <path d="m165.6 528c7.1992 0 12-4.8008 12-12v-68.398c0-7.1992-4.8008-12-12-12-7.1992 0-12 4.8008-12 12v68.398c0 7.1992 6 12 12 12z"/>
  <path d="m373.2 528c7.1992 0 12-4.8008 12-12v-68.398c0-7.1992-4.8008-12-12-12s-12 4.8008-12 12v68.398c0 7.1992 6 12 12 12z"/>
  <path d="m580.8 528c7.1992 0 12-4.8008 12-12v-68.398c0-7.1992-4.8008-12-12-12s-12 4.8008-12 12v68.398c0 7.1992 4.8008 12 12 12z"/>
  <path d="m788.4 528c7.1992 0 12-4.8008 12-12v-68.398c0-7.1992-4.8008-12-12-12-7.1992 0-12 4.8008-12 12v68.398c0 7.1992 4.8008 12 12 12z"/>
  <path d="m996 435.6c-7.1992 0-12 4.8008-12 12v68.398c0 7.1992 4.8008 12 12 12s12-4.8008 12-12v-68.398c0-6-4.8008-12-12-12z"/>
 </g>
</svg>
