<?xml version="1.0" encoding="UTF-8"?>
<svg width="1200pt" height="1200pt" version="1.1" viewBox="0 0 1200 1200" xmlns="http://www.w3.org/2000/svg">
 <g fill="#003055">
  <path d="m882.72 159.84h-185.04c-8.875-27.777-29.16-50.461-55.781-62.367-26.621-11.902-57.055-11.902-83.676 0-26.621 11.906-46.91 34.59-55.781 62.367h-185.16c-35.012 0-68.586 13.906-93.34 38.66-24.754 24.758-38.66 58.332-38.66 93.34v687.72c0 35.012 13.906 68.586 38.66 93.34 24.754 24.754 58.328 38.66 93.34 38.66h565.44c35.012 0 68.586-13.906 93.34-38.66 24.754-24.754 38.66-58.328 38.66-93.34v-687.72c0-35.008-13.906-68.582-38.66-93.34-24.754-24.754-58.328-38.66-93.34-38.66zm-361.44 24 2.0391-9.4805h0.003906c5.125-23.512 20.75-43.371 42.398-53.883 21.645-10.512 46.918-10.512 68.562 0 21.648 10.512 37.273 30.371 42.398 53.883l2.0391 9.4805h74.281v78.602c0 9.5469-3.793 18.703-10.543 25.453-6.7539 6.7539-15.91 10.547-25.457 10.547h-234c-9.5469 0-18.703-3.793-25.457-10.547-6.75-6.75-10.543-15.906-10.543-25.453v-78.602zm469.44 795.72c0 28.645-11.379 56.113-31.633 76.367-20.254 20.254-47.723 31.633-76.367 31.633h-565.44c-28.645 0-56.113-11.379-76.367-31.633-20.254-20.254-31.633-47.723-31.633-76.367v-687.72c0-28.645 11.379-56.113 31.633-76.367 20.254-20.254 47.723-31.633 76.367-31.633h105.72v78.602c0 15.91 6.3203 31.172 17.574 42.426 11.25 11.25 26.512 17.574 42.426 17.574h234c15.914 0 31.176-6.3242 42.426-17.574 11.254-11.254 17.574-26.516 17.574-42.426v-78.602h105.72c28.645 0 56.113 11.379 76.367 31.633 20.254 20.254 31.633 47.723 31.633 76.367z"/>
  <path d="m493.92 482.04h-139.92c-6.6289 0-12 5.375-12 12v139.92c0 3.1836 1.2656 6.2344 3.5156 8.4844s5.3008 3.5156 8.4844 3.5156h139.92c3.1797 0 6.2344-1.2656 8.4844-3.5156s3.5156-5.3008 3.5156-8.4844v-139.92c0-3.1836-1.2656-6.2344-3.5156-8.4844s-5.3047-3.5156-8.4844-3.5156zm-12 139.92h-115.92v-115.92h115.92z"/>
  <path d="m846 552h-255.24c-6.6289 0-12 5.3711-12 12s5.3711 12 12 12h255.24c6.6289 0 12-5.3711 12-12s-5.3711-12-12-12z"/>
  <path d="m493.92 770.04h-139.92c-6.6289 0-12 5.375-12 12v139.92c0 3.1836 1.2656 6.2344 3.5156 8.4844s5.3008 3.5156 8.4844 3.5156h139.92c3.1797 0 6.2344-1.2656 8.4844-3.5156s3.5156-5.3008 3.5156-8.4844v-139.92c0-3.1836-1.2656-6.2344-3.5156-8.4844s-5.3047-3.5156-8.4844-3.5156zm-12 139.92h-115.92v-115.92h115.92z"/>
  <path d="m846 840h-255.24c-6.6289 0-12 5.3711-12 12s5.3711 12 12 12h255.24c6.6289 0 12-5.3711 12-12s-5.3711-12-12-12z"/>
 </g>
</svg>
