<?xml version="1.0" encoding="UTF-8"?>
<svg width="1200pt" height="1200pt" version="1.1" viewBox="0 0 1200 1200" xmlns="http://www.w3.org/2000/svg">
 <path d="m564.6 87.359c-12.73-17.191-32.848-27.34-54.242-27.359h-382.8c-17.918 0-35.102 7.1172-47.77 19.789-12.672 12.668-19.789 29.852-19.789 47.77v382.8c0.007812 14.484 4.6797 28.578 13.32 40.199l589.44 589.44c114.4-30.738 218.71-91.008 302.47-174.77s144.03-188.07 174.77-302.47zm-192.6 411.36c-33.562-0.03125-65.738-13.387-89.457-37.137-23.715-23.746-37.035-55.941-37.023-89.504s13.348-65.746 37.082-89.477c23.73-23.734 55.914-37.07 89.477-37.082s65.758 13.309 89.504 37.023c23.75 23.719 37.105 55.895 37.137 89.457 0.03125 33.617-13.309 65.867-37.078 89.641-23.773 23.77-56.023 37.109-89.641 37.078z" fill="#003055"/>
</svg>
