<?xml version="1.0" encoding="UTF-8"?>
<svg width="1200pt" height="1200pt" version="1.1" viewBox="0 0 1200 1200" xmlns="http://www.w3.org/2000/svg">
 <g fill="#003055" fill-rule="evenodd">
  <path d="m600 175c-110.46 0-200 89.543-200 200s89.543 200 200 200c110.45 0 200-89.543 200-200s-89.547-200-200-200zm-250 200c0-138.07 111.93-250 250-250s250 111.93 250 250-111.93 250-250 250-250-111.93-250-250z"/>
  <path d="m398.99 629.23c11.473-7.6797 27-4.6055 34.68 6.8672 35.922 53.668 97.016 88.91 166.34 88.91 69.32 0 130.42-35.242 166.34-88.91 7.6797-11.473 23.211-14.547 34.68-6.8672 11.477 7.6836 14.551 23.207 6.8711 34.684-44.805 66.934-121.19 111.09-207.89 111.09-86.703 0-163.08-44.16-207.89-111.09-7.6797-11.477-4.6055-27 6.8711-34.684z"/>
  <path d="m225.82 975h76.773c13.809 0 25 11.195 25 25s-11.191 25-25 25h-102.59c-13.809 0-25-11.195-25-25 0-234.72 190.28-425 425-425 234.72 0 425 190.28 425 425 0 13.805-11.195 25-25 25h-548.51c-13.809 0-25-11.195-25-25s11.191-25 25-25h522.69c-12.863-195.45-175.48-350-374.18-350-198.71 0-361.32 154.55-374.18 350z"/>
 </g>
</svg>
